<mxfile host="app.diagrams.net" agent="Mozilla/5.0 (Macintosh; Intel Mac OS X 10_15_7) AppleWebKit/537.36 (KHTML, like Gecko) Chrome/129.0.0.0 Safari/537.36" version="24.7.17">
  <diagram name="Страница — 1" id="GmSG8cgiWZRSHYYx-Ri9">
    <mxGraphModel dx="444" dy="297" grid="1" gridSize="10" guides="1" tooltips="1" connect="1" arrows="1" fold="1" page="1" pageScale="1" pageWidth="827" pageHeight="1169" math="0" shadow="0">
      <root>
        <mxCell id="0" />
        <mxCell id="1" parent="0" />
        <mxCell id="gU8ZbOlMIRfk5gMa6P2e-1" value="" style="rounded=1;whiteSpace=wrap;html=1;" vertex="1" parent="1">
          <mxGeometry x="29" y="165" width="120" height="230" as="geometry" />
        </mxCell>
        <mxCell id="gU8ZbOlMIRfk5gMa6P2e-4" value="table_booking" style="text;html=1;align=center;verticalAlign=middle;whiteSpace=wrap;rounded=0;fontStyle=1;fontSize=9;" vertex="1" parent="1">
          <mxGeometry x="59" y="165" width="60" height="30" as="geometry" />
        </mxCell>
        <mxCell id="gU8ZbOlMIRfk5gMa6P2e-6" value="" style="rounded=0;whiteSpace=wrap;html=1;" vertex="1" parent="1">
          <mxGeometry x="39" y="265" width="100" height="30" as="geometry" />
        </mxCell>
        <mxCell id="gU8ZbOlMIRfk5gMa6P2e-7" value="Забронировать столик" style="text;html=1;align=center;verticalAlign=middle;whiteSpace=wrap;rounded=0;fontSize=7;" vertex="1" parent="1">
          <mxGeometry x="39" y="265" width="100" height="30" as="geometry" />
        </mxCell>
        <mxCell id="gU8ZbOlMIRfk5gMa6P2e-8" value="" style="rounded=1;whiteSpace=wrap;html=1;" vertex="1" parent="1">
          <mxGeometry x="360" y="165" width="120" height="230" as="geometry" />
        </mxCell>
        <mxCell id="gU8ZbOlMIRfk5gMa6P2e-10" value="" style="rounded=1;whiteSpace=wrap;html=1;" vertex="1" parent="1">
          <mxGeometry x="360" y="185" width="120" height="210" as="geometry" />
        </mxCell>
        <mxCell id="gU8ZbOlMIRfk5gMa6P2e-11" value="назад" style="text;html=1;align=center;verticalAlign=middle;whiteSpace=wrap;rounded=0;fontSize=6;fillColor=#dae8fc;strokeColor=#6c8ebf;" vertex="1" parent="1">
          <mxGeometry x="360" y="165" width="60" height="18" as="geometry" />
        </mxCell>
        <mxCell id="gU8ZbOlMIRfk5gMa6P2e-14" value="выберите столик" style="text;html=1;align=center;verticalAlign=middle;whiteSpace=wrap;rounded=0;fontSize=6;" vertex="1" parent="1">
          <mxGeometry x="385" y="195" width="70" height="10" as="geometry" />
        </mxCell>
        <mxCell id="gU8ZbOlMIRfk5gMa6P2e-18" value="" style="ellipse;whiteSpace=wrap;html=1;aspect=fixed;fillColor=#f8cecc;strokeColor=#b85450;" vertex="1" parent="1">
          <mxGeometry x="420" y="240" width="40" height="40" as="geometry" />
        </mxCell>
        <mxCell id="gU8ZbOlMIRfk5gMa6P2e-20" value="" style="rounded=0;whiteSpace=wrap;html=1;fillColor=#d5e8d4;strokeColor=#82b366;" vertex="1" parent="1">
          <mxGeometry x="390" y="312" width="60" height="30" as="geometry" />
        </mxCell>
        <mxCell id="gU8ZbOlMIRfk5gMa6P2e-22" value="" style="shape=link;html=1;rounded=0;" edge="1" parent="1">
          <mxGeometry width="100" relative="1" as="geometry">
            <mxPoint x="370" y="385" as="sourcePoint" />
            <mxPoint x="470" y="385" as="targetPoint" />
          </mxGeometry>
        </mxCell>
        <mxCell id="gU8ZbOlMIRfk5gMa6P2e-23" value="" style="shape=link;html=1;rounded=0;" edge="1" parent="1">
          <mxGeometry width="100" relative="1" as="geometry">
            <mxPoint x="476" y="217.39" as="sourcePoint" />
            <mxPoint x="476" y="372.61" as="targetPoint" />
          </mxGeometry>
        </mxCell>
        <mxCell id="gU8ZbOlMIRfk5gMa6P2e-24" value="" style="endArrow=none;html=1;rounded=0;" edge="1" parent="1">
          <mxGeometry width="50" height="50" relative="1" as="geometry">
            <mxPoint x="476" y="315" as="sourcePoint" />
            <mxPoint x="476" y="245" as="targetPoint" />
          </mxGeometry>
        </mxCell>
        <mxCell id="gU8ZbOlMIRfk5gMa6P2e-25" value="" style="endArrow=none;html=1;rounded=0;" edge="1" parent="1">
          <mxGeometry width="50" height="50" relative="1" as="geometry">
            <mxPoint x="390" y="385" as="sourcePoint" />
            <mxPoint x="440" y="385" as="targetPoint" />
            <Array as="points">
              <mxPoint x="450" y="385" />
            </Array>
          </mxGeometry>
        </mxCell>
        <mxCell id="gU8ZbOlMIRfk5gMa6P2e-26" value="" style="ellipse;whiteSpace=wrap;html=1;aspect=fixed;fillColor=#d5e8d4;strokeColor=#82b366;" vertex="1" parent="1">
          <mxGeometry x="370" y="241" width="40" height="40" as="geometry" />
        </mxCell>
        <mxCell id="gU8ZbOlMIRfk5gMa6P2e-28" value="" style="rounded=1;whiteSpace=wrap;html=1;" vertex="1" parent="1">
          <mxGeometry x="198" y="165" width="120" height="230" as="geometry" />
        </mxCell>
        <mxCell id="gU8ZbOlMIRfk5gMa6P2e-29" value="" style="rounded=1;whiteSpace=wrap;html=1;" vertex="1" parent="1">
          <mxGeometry x="198" y="185" width="120" height="210" as="geometry" />
        </mxCell>
        <mxCell id="gU8ZbOlMIRfk5gMa6P2e-109" style="edgeStyle=orthogonalEdgeStyle;rounded=0;orthogonalLoop=1;jettySize=auto;html=1;entryX=0.5;entryY=0;entryDx=0;entryDy=0;" edge="1" parent="1" source="gU8ZbOlMIRfk5gMa6P2e-30" target="gU8ZbOlMIRfk5gMa6P2e-4">
          <mxGeometry relative="1" as="geometry" />
        </mxCell>
        <mxCell id="gU8ZbOlMIRfk5gMa6P2e-30" value="назад" style="text;html=1;align=center;verticalAlign=middle;whiteSpace=wrap;rounded=0;fontSize=6;strokeColor=#6c8ebf;fillColor=#dae8fc;" vertex="1" parent="1">
          <mxGeometry x="198" y="165" width="60" height="18" as="geometry" />
        </mxCell>
        <mxCell id="gU8ZbOlMIRfk5gMa6P2e-31" value="информация о визите" style="text;html=1;align=center;verticalAlign=middle;whiteSpace=wrap;rounded=0;fontSize=6;" vertex="1" parent="1">
          <mxGeometry x="223" y="195" width="70" height="10" as="geometry" />
        </mxCell>
        <mxCell id="gU8ZbOlMIRfk5gMa6P2e-32" value="" style="rounded=1;whiteSpace=wrap;html=1;" vertex="1" parent="1">
          <mxGeometry x="208" y="230" width="100" height="15" as="geometry" />
        </mxCell>
        <mxCell id="gU8ZbOlMIRfk5gMa6P2e-33" value="" style="rounded=1;whiteSpace=wrap;html=1;" vertex="1" parent="1">
          <mxGeometry x="208" y="262.5" width="100" height="17.5" as="geometry" />
        </mxCell>
        <mxCell id="gU8ZbOlMIRfk5gMa6P2e-34" value="Дата" style="text;html=1;align=center;verticalAlign=middle;whiteSpace=wrap;rounded=0;fontSize=7;" vertex="1" parent="1">
          <mxGeometry x="198" y="205" width="50" height="36" as="geometry" />
        </mxCell>
        <mxCell id="gU8ZbOlMIRfk5gMa6P2e-35" value="Время" style="text;html=1;align=center;verticalAlign=middle;whiteSpace=wrap;rounded=0;fontSize=7;" vertex="1" parent="1">
          <mxGeometry x="198" y="240" width="50" height="30" as="geometry" />
        </mxCell>
        <mxCell id="gU8ZbOlMIRfk5gMa6P2e-36" value="" style="triangle;whiteSpace=wrap;html=1;rotation=90;" vertex="1" parent="1">
          <mxGeometry x="298" y="236" width="2" height="4" as="geometry" />
        </mxCell>
        <mxCell id="gU8ZbOlMIRfk5gMa6P2e-38" value="" style="triangle;whiteSpace=wrap;html=1;rotation=90;" vertex="1" parent="1">
          <mxGeometry x="298" y="269.25" width="2" height="4" as="geometry" />
        </mxCell>
        <mxCell id="gU8ZbOlMIRfk5gMa6P2e-39" value="Выберите дату&amp;nbsp;" style="text;html=1;align=center;verticalAlign=middle;whiteSpace=wrap;rounded=0;fontSize=5;" vertex="1" parent="1">
          <mxGeometry x="180" y="224" width="105" height="25" as="geometry" />
        </mxCell>
        <mxCell id="gU8ZbOlMIRfk5gMa6P2e-40" value="Выберите время&amp;nbsp;" style="text;html=1;align=center;verticalAlign=middle;whiteSpace=wrap;rounded=0;fontSize=5;" vertex="1" parent="1">
          <mxGeometry x="180" y="258.75" width="105" height="25" as="geometry" />
        </mxCell>
        <mxCell id="gU8ZbOlMIRfk5gMa6P2e-41" value="" style="rounded=1;whiteSpace=wrap;html=1;" vertex="1" parent="1">
          <mxGeometry x="208" y="301.25" width="100" height="17.5" as="geometry" />
        </mxCell>
        <mxCell id="gU8ZbOlMIRfk5gMa6P2e-42" value="Количество гостей" style="text;html=1;align=center;verticalAlign=middle;whiteSpace=wrap;rounded=0;fontSize=7;" vertex="1" parent="1">
          <mxGeometry x="203" y="277.5" width="80" height="30" as="geometry" />
        </mxCell>
        <mxCell id="gU8ZbOlMIRfk5gMa6P2e-43" value="" style="triangle;whiteSpace=wrap;html=1;rotation=90;" vertex="1" parent="1">
          <mxGeometry x="298" y="308" width="2" height="4" as="geometry" />
        </mxCell>
        <mxCell id="gU8ZbOlMIRfk5gMa6P2e-44" value="Сколько гостей планируется" style="text;html=1;align=center;verticalAlign=middle;whiteSpace=wrap;rounded=0;fontSize=5;" vertex="1" parent="1">
          <mxGeometry x="195" y="295" width="105" height="25" as="geometry" />
        </mxCell>
        <mxCell id="gU8ZbOlMIRfk5gMa6P2e-45" value="" style="rounded=1;whiteSpace=wrap;html=1;" vertex="1" parent="1">
          <mxGeometry x="205.5" y="365" width="105" height="20" as="geometry" />
        </mxCell>
        <mxCell id="gU8ZbOlMIRfk5gMa6P2e-46" value="выбрать столик" style="text;html=1;align=center;verticalAlign=middle;whiteSpace=wrap;rounded=0;fontSize=8;" vertex="1" parent="1">
          <mxGeometry x="210.5" y="360" width="95" height="30" as="geometry" />
        </mxCell>
        <mxCell id="gU8ZbOlMIRfk5gMa6P2e-47" value="" style="rounded=1;whiteSpace=wrap;html=1;" vertex="1" parent="1">
          <mxGeometry x="365" y="209" width="50" height="15" as="geometry" />
        </mxCell>
        <mxCell id="gU8ZbOlMIRfk5gMa6P2e-48" value="1 этаж" style="text;html=1;align=center;verticalAlign=middle;whiteSpace=wrap;rounded=0;fontSize=9;" vertex="1" parent="1">
          <mxGeometry x="360" y="201.5" width="60" height="30" as="geometry" />
        </mxCell>
        <mxCell id="gU8ZbOlMIRfk5gMa6P2e-54" value="" style="rounded=1;whiteSpace=wrap;html=1;" vertex="1" parent="1">
          <mxGeometry x="420" y="208" width="50" height="17" as="geometry" />
        </mxCell>
        <mxCell id="gU8ZbOlMIRfk5gMa6P2e-55" value="2 этаж" style="text;html=1;align=center;verticalAlign=middle;whiteSpace=wrap;rounded=0;fontSize=9;" vertex="1" parent="1">
          <mxGeometry x="415" y="203.25" width="60" height="26.5" as="geometry" />
        </mxCell>
        <mxCell id="gU8ZbOlMIRfk5gMa6P2e-56" value="занят до 19:30" style="text;html=1;align=center;verticalAlign=middle;whiteSpace=wrap;rounded=0;fontSize=4;" vertex="1" parent="1">
          <mxGeometry x="410" y="245" width="60" height="30" as="geometry" />
        </mxCell>
        <mxCell id="gU8ZbOlMIRfk5gMa6P2e-59" value="" style="rounded=1;whiteSpace=wrap;html=1;rotation=-180;fillColor=#d5e8d4;strokeColor=#82b366;" vertex="1" parent="1">
          <mxGeometry x="380" y="235" width="20" height="10" as="geometry" />
        </mxCell>
        <mxCell id="gU8ZbOlMIRfk5gMa6P2e-60" value="" style="rounded=1;whiteSpace=wrap;html=1;rotation=-181;fillColor=#d5e8d4;strokeColor=#82b366;" vertex="1" parent="1">
          <mxGeometry x="380" y="277.5" width="20" height="10" as="geometry" />
        </mxCell>
        <mxCell id="gU8ZbOlMIRfk5gMa6P2e-62" value="" style="rounded=1;whiteSpace=wrap;html=1;rotation=-180;fillColor=#f8cecc;strokeColor=#b85450;" vertex="1" parent="1">
          <mxGeometry x="430" y="235" width="20" height="10" as="geometry" />
        </mxCell>
        <mxCell id="gU8ZbOlMIRfk5gMa6P2e-63" value="" style="rounded=1;whiteSpace=wrap;html=1;rotation=-180;fillColor=#f8cecc;strokeColor=#b85450;" vertex="1" parent="1">
          <mxGeometry x="430" y="275" width="20" height="10" as="geometry" />
        </mxCell>
        <mxCell id="gU8ZbOlMIRfk5gMa6P2e-64" value="" style="rounded=1;whiteSpace=wrap;html=1;rotation=-180;fillColor=#e1d5e7;strokeColor=#9673a6;" vertex="1" parent="1">
          <mxGeometry x="410" y="305" width="20" height="10" as="geometry" />
        </mxCell>
        <mxCell id="gU8ZbOlMIRfk5gMa6P2e-65" value="" style="rounded=1;whiteSpace=wrap;html=1;rotation=-180;fillColor=#e1d5e7;strokeColor=#9673a6;" vertex="1" parent="1">
          <mxGeometry x="410" y="342" width="20" height="10" as="geometry" />
        </mxCell>
        <mxCell id="gU8ZbOlMIRfk5gMa6P2e-67" value="" style="rounded=1;whiteSpace=wrap;html=1;rotation=-90;fillColor=#e1d5e7;strokeColor=#9673a6;" vertex="1" parent="1">
          <mxGeometry x="380" y="322" width="20" height="10" as="geometry" />
        </mxCell>
        <mxCell id="gU8ZbOlMIRfk5gMa6P2e-68" value="" style="rounded=1;whiteSpace=wrap;html=1;rotation=-90;fillColor=#e1d5e7;strokeColor=#9673a6;" vertex="1" parent="1">
          <mxGeometry x="440" y="322" width="20" height="10" as="geometry" />
        </mxCell>
        <mxCell id="gU8ZbOlMIRfk5gMa6P2e-69" value="&lt;span style=&quot;font-size: 8px;&quot;&gt;выбран&lt;/span&gt;" style="text;html=1;align=center;verticalAlign=middle;whiteSpace=wrap;rounded=0;fillColor=#e1d5e7;strokeColor=#9673a6;" vertex="1" parent="1">
          <mxGeometry x="390" y="312" width="60" height="30" as="geometry" />
        </mxCell>
        <mxCell id="gU8ZbOlMIRfk5gMa6P2e-70" value="доступен" style="text;html=1;align=center;verticalAlign=middle;whiteSpace=wrap;rounded=0;fontSize=4;" vertex="1" parent="1">
          <mxGeometry x="360" y="245" width="60" height="30" as="geometry" />
        </mxCell>
        <mxCell id="gU8ZbOlMIRfk5gMa6P2e-73" value="" style="rounded=1;whiteSpace=wrap;html=1;" vertex="1" parent="1">
          <mxGeometry x="370" y="365" width="100" height="12" as="geometry" />
        </mxCell>
        <mxCell id="gU8ZbOlMIRfk5gMa6P2e-74" value="выбрать столик" style="text;html=1;align=center;verticalAlign=middle;whiteSpace=wrap;rounded=0;fontSize=8;" vertex="1" parent="1">
          <mxGeometry x="372.5" y="355" width="95" height="30" as="geometry" />
        </mxCell>
        <mxCell id="gU8ZbOlMIRfk5gMa6P2e-76" value="" style="rounded=1;whiteSpace=wrap;html=1;" vertex="1" parent="1">
          <mxGeometry x="520" y="160" width="120" height="229.5" as="geometry" />
        </mxCell>
        <mxCell id="gU8ZbOlMIRfk5gMa6P2e-77" value="" style="rounded=1;whiteSpace=wrap;html=1;" vertex="1" parent="1">
          <mxGeometry x="520" y="179.5" width="120" height="215" as="geometry" />
        </mxCell>
        <mxCell id="gU8ZbOlMIRfk5gMa6P2e-78" value="дополнительная информация" style="text;html=1;align=center;verticalAlign=middle;whiteSpace=wrap;rounded=0;fontSize=6;" vertex="1" parent="1">
          <mxGeometry x="545" y="189.5" width="70" height="10" as="geometry" />
        </mxCell>
        <mxCell id="gU8ZbOlMIRfk5gMa6P2e-81" value="" style="rounded=1;whiteSpace=wrap;html=1;" vertex="1" parent="1">
          <mxGeometry x="530" y="229.5" width="102.5" height="15" as="geometry" />
        </mxCell>
        <mxCell id="gU8ZbOlMIRfk5gMa6P2e-82" value="Полное имя" style="text;html=1;align=center;verticalAlign=middle;whiteSpace=wrap;rounded=0;fontSize=6;" vertex="1" parent="1">
          <mxGeometry x="510" y="205.5" width="90" height="30" as="geometry" />
        </mxCell>
        <mxCell id="gU8ZbOlMIRfk5gMa6P2e-83" value="" style="rounded=1;whiteSpace=wrap;html=1;" vertex="1" parent="1">
          <mxGeometry x="530" y="259.5" width="102.5" height="15" as="geometry" />
        </mxCell>
        <mxCell id="gU8ZbOlMIRfk5gMa6P2e-84" value="Номер телефона" style="text;html=1;align=center;verticalAlign=middle;whiteSpace=wrap;rounded=0;fontSize=6;" vertex="1" parent="1">
          <mxGeometry x="510" y="235.5" width="90" height="30" as="geometry" />
        </mxCell>
        <mxCell id="gU8ZbOlMIRfk5gMa6P2e-85" value="" style="rounded=1;whiteSpace=wrap;html=1;" vertex="1" parent="1">
          <mxGeometry x="530" y="296.5" width="102.5" height="63" as="geometry" />
        </mxCell>
        <mxCell id="gU8ZbOlMIRfk5gMa6P2e-86" value="Дополнительные пожелания" style="text;html=1;align=center;verticalAlign=middle;whiteSpace=wrap;rounded=0;fontSize=6;" vertex="1" parent="1">
          <mxGeometry x="530" y="274.5" width="90" height="30" as="geometry" />
        </mxCell>
        <mxCell id="gU8ZbOlMIRfk5gMa6P2e-87" value="назад" style="text;html=1;align=center;verticalAlign=middle;whiteSpace=wrap;rounded=0;fontSize=6;fillColor=#dae8fc;strokeColor=#6c8ebf;" vertex="1" parent="1">
          <mxGeometry x="520" y="159.5" width="50" height="18" as="geometry" />
        </mxCell>
        <mxCell id="gU8ZbOlMIRfk5gMa6P2e-90" value="далее" style="rounded=1;whiteSpace=wrap;html=1;" vertex="1" parent="1">
          <mxGeometry x="530" y="369.5" width="102.5" height="15" as="geometry" />
        </mxCell>
        <mxCell id="gU8ZbOlMIRfk5gMa6P2e-91" value="" style="rounded=1;whiteSpace=wrap;html=1;" vertex="1" parent="1">
          <mxGeometry x="681" y="160" width="120" height="230" as="geometry" />
        </mxCell>
        <mxCell id="gU8ZbOlMIRfk5gMa6P2e-92" value="" style="rounded=1;whiteSpace=wrap;html=1;" vertex="1" parent="1">
          <mxGeometry x="681" y="180" width="120" height="215" as="geometry" />
        </mxCell>
        <mxCell id="gU8ZbOlMIRfk5gMa6P2e-93" value="детали бронирования" style="text;html=1;align=center;verticalAlign=middle;whiteSpace=wrap;rounded=0;fontSize=6;" vertex="1" parent="1">
          <mxGeometry x="706" y="190" width="70" height="10" as="geometry" />
        </mxCell>
        <mxCell id="gU8ZbOlMIRfk5gMa6P2e-94" value="Артем Ребрик" style="rounded=1;whiteSpace=wrap;html=1;fontSize=6;" vertex="1" parent="1">
          <mxGeometry x="691" y="216.5" width="102.5" height="15" as="geometry" />
        </mxCell>
        <mxCell id="gU8ZbOlMIRfk5gMa6P2e-95" value="Полное имя" style="text;html=1;align=center;verticalAlign=middle;whiteSpace=wrap;rounded=0;fontSize=6;" vertex="1" parent="1">
          <mxGeometry x="671" y="195" width="90" height="30" as="geometry" />
        </mxCell>
        <mxCell id="gU8ZbOlMIRfk5gMa6P2e-96" value="+532523750" style="rounded=1;whiteSpace=wrap;html=1;fontSize=7;" vertex="1" parent="1">
          <mxGeometry x="691" y="249" width="102.5" height="15" as="geometry" />
        </mxCell>
        <mxCell id="gU8ZbOlMIRfk5gMa6P2e-97" value="Номер телефона" style="text;html=1;align=center;verticalAlign=middle;whiteSpace=wrap;rounded=0;fontSize=6;" vertex="1" parent="1">
          <mxGeometry x="671" y="225" width="90" height="30" as="geometry" />
        </mxCell>
        <mxCell id="gU8ZbOlMIRfk5gMa6P2e-99" value="Дата" style="text;html=1;align=center;verticalAlign=middle;whiteSpace=wrap;rounded=0;fontSize=6;" vertex="1" parent="1">
          <mxGeometry x="690" y="262" width="60" height="30" as="geometry" />
        </mxCell>
        <mxCell id="gU8ZbOlMIRfk5gMa6P2e-100" value="назад" style="text;html=1;align=center;verticalAlign=middle;whiteSpace=wrap;rounded=0;fontSize=6;fillColor=#dae8fc;strokeColor=#6c8ebf;" vertex="1" parent="1">
          <mxGeometry x="680" y="160" width="55" height="18" as="geometry" />
        </mxCell>
        <mxCell id="gU8ZbOlMIRfk5gMa6P2e-101" value="подтвердить бронь" style="rounded=1;whiteSpace=wrap;html=1;fontSize=8;" vertex="1" parent="1">
          <mxGeometry x="691" y="370" width="102.5" height="15" as="geometry" />
        </mxCell>
        <mxCell id="gU8ZbOlMIRfk5gMa6P2e-102" value="Время" style="text;html=1;align=center;verticalAlign=middle;whiteSpace=wrap;rounded=0;fontSize=6;" vertex="1" parent="1">
          <mxGeometry x="660" y="295" width="90" height="30" as="geometry" />
        </mxCell>
        <mxCell id="gU8ZbOlMIRfk5gMa6P2e-103" value="19.10.2024" style="rounded=1;whiteSpace=wrap;html=1;fontSize=9;" vertex="1" parent="1">
          <mxGeometry x="692.25" y="283.75" width="100" height="16" as="geometry" />
        </mxCell>
        <mxCell id="gU8ZbOlMIRfk5gMa6P2e-104" value="20:00" style="rounded=1;whiteSpace=wrap;html=1;fontSize=9;" vertex="1" parent="1">
          <mxGeometry x="692.25" y="318.75" width="100" height="16" as="geometry" />
        </mxCell>
        <mxCell id="gU8ZbOlMIRfk5gMa6P2e-105" value="" style="rounded=1;whiteSpace=wrap;html=1;fontSize=9;" vertex="1" parent="1">
          <mxGeometry x="692.25" y="349" width="100" height="16" as="geometry" />
        </mxCell>
        <mxCell id="gU8ZbOlMIRfk5gMa6P2e-106" value="Пожелания" style="text;html=1;align=center;verticalAlign=middle;whiteSpace=wrap;rounded=0;fontSize=6;" vertex="1" parent="1">
          <mxGeometry x="671" y="330" width="90" height="30" as="geometry" />
        </mxCell>
        <mxCell id="gU8ZbOlMIRfk5gMa6P2e-108" style="edgeStyle=orthogonalEdgeStyle;rounded=0;orthogonalLoop=1;jettySize=auto;html=1;" edge="1" parent="1" source="gU8ZbOlMIRfk5gMa6P2e-7">
          <mxGeometry relative="1" as="geometry">
            <mxPoint x="197" y="280" as="targetPoint" />
          </mxGeometry>
        </mxCell>
        <mxCell id="gU8ZbOlMIRfk5gMa6P2e-112" style="edgeStyle=orthogonalEdgeStyle;rounded=0;orthogonalLoop=1;jettySize=auto;html=1;entryX=0.001;entryY=0.449;entryDx=0;entryDy=0;entryPerimeter=0;" edge="1" parent="1" source="gU8ZbOlMIRfk5gMa6P2e-46" target="gU8ZbOlMIRfk5gMa6P2e-10">
          <mxGeometry relative="1" as="geometry" />
        </mxCell>
        <mxCell id="gU8ZbOlMIRfk5gMa6P2e-114" style="edgeStyle=orthogonalEdgeStyle;rounded=0;orthogonalLoop=1;jettySize=auto;html=1;entryX=0.723;entryY=0;entryDx=0;entryDy=0;entryPerimeter=0;" edge="1" parent="1" source="gU8ZbOlMIRfk5gMa6P2e-11" target="gU8ZbOlMIRfk5gMa6P2e-28">
          <mxGeometry relative="1" as="geometry" />
        </mxCell>
        <mxCell id="gU8ZbOlMIRfk5gMa6P2e-115" style="edgeStyle=orthogonalEdgeStyle;rounded=0;orthogonalLoop=1;jettySize=auto;html=1;entryX=-0.027;entryY=0.459;entryDx=0;entryDy=0;entryPerimeter=0;" edge="1" parent="1" source="gU8ZbOlMIRfk5gMa6P2e-74" target="gU8ZbOlMIRfk5gMa6P2e-77">
          <mxGeometry relative="1" as="geometry" />
        </mxCell>
        <mxCell id="gU8ZbOlMIRfk5gMa6P2e-116" style="edgeStyle=orthogonalEdgeStyle;rounded=0;orthogonalLoop=1;jettySize=auto;html=1;entryX=0.696;entryY=0.002;entryDx=0;entryDy=0;entryPerimeter=0;" edge="1" parent="1" source="gU8ZbOlMIRfk5gMa6P2e-87" target="gU8ZbOlMIRfk5gMa6P2e-8">
          <mxGeometry relative="1" as="geometry" />
        </mxCell>
        <mxCell id="gU8ZbOlMIRfk5gMa6P2e-118" style="edgeStyle=orthogonalEdgeStyle;rounded=0;orthogonalLoop=1;jettySize=auto;html=1;entryX=0.002;entryY=0.464;entryDx=0;entryDy=0;entryPerimeter=0;" edge="1" parent="1" source="gU8ZbOlMIRfk5gMa6P2e-90" target="gU8ZbOlMIRfk5gMa6P2e-92">
          <mxGeometry relative="1" as="geometry" />
        </mxCell>
        <mxCell id="gU8ZbOlMIRfk5gMa6P2e-119" style="edgeStyle=orthogonalEdgeStyle;rounded=0;orthogonalLoop=1;jettySize=auto;html=1;entryX=0.67;entryY=-0.004;entryDx=0;entryDy=0;entryPerimeter=0;" edge="1" parent="1" source="gU8ZbOlMIRfk5gMa6P2e-100" target="gU8ZbOlMIRfk5gMa6P2e-76">
          <mxGeometry relative="1" as="geometry" />
        </mxCell>
      </root>
    </mxGraphModel>
  </diagram>
</mxfile>
